<svg xmlns="http://www.w3.org/2000/svg" version="1.1" xmlns:xlink="http://www.w3.org/1999/xlink" xmlns:svgjs="http://svgjs.dev/svgjs" width="1500" height="1500" viewBox="0 0 1500 1500"><g transform="matrix(1,0,0,1,-0.323615160350073,-0.3236151603499593)"><svg viewBox="0 0 343 343" data-background-color="#ffffff" preserveAspectRatio="xMidYMid meet" height="1500" width="1500" xmlns="http://www.w3.org/2000/svg" xmlns:xlink="http://www.w3.org/1999/xlink"><g id="tight-bounds" transform="matrix(1,0,0,1,0.0740000000000407,0.07400000000001228)"><svg viewBox="0 0 342.85155851775386 342.85155851775386" height="342.85155851775386" width="342.85155851775386"><g><svg></svg></g><g><svg viewBox="0 0 342.85155851775386 342.85155851775386" height="342.85155851775386" width="342.85155851775386"><g><path d="M0 171.426c0-94.676 76.75-171.426 171.426-171.426 94.676 0 171.426 76.75 171.426 171.426 0 94.676-76.75 171.426-171.426 171.426-94.676 0-171.426-76.75-171.426-171.426zM171.426 331.935c88.647 0 160.509-71.862 160.509-160.509 0-88.647-71.862-160.509-160.509-160.509-88.647 0-160.509 71.862-160.509 160.509 0 88.647 71.862 160.509 160.509 160.509z" data-fill-palette-color="tertiary" fill="#ff851b" stroke="transparent"></path><ellipse rx="164.56874808852186" ry="164.56874808852186" cx="171.42577925887693" cy="171.42577925887693" fill="#ff851b" stroke="transparent" stroke-width="0" fill-opacity="1" data-fill-palette-color="tertiary"></ellipse></g><g transform="matrix(1,0,0,1,64.84655864529837,110.89930829314096)"><svg viewBox="0 0 213.1584412271571 121.05294193147195" height="121.05294193147195" width="213.1584412271571"><g><svg viewBox="0 0 213.1584412271571 121.05294193147195" height="121.05294193147195" width="213.1584412271571"><g><svg viewBox="0 0 213.1584412271571 121.05294193147195" height="121.05294193147195" width="213.1584412271571"><g><svg viewBox="0 0 213.1584412271571 121.05294193147195" height="121.05294193147195" width="213.1584412271571"><g id="textblocktransform"><svg viewBox="0 0 213.1584412271571 121.05294193147195" height="121.05294193147195" width="213.1584412271571" id="textblock"><g><svg viewBox="0 0 213.1584412271571 121.05294193147195" height="121.05294193147195" width="213.1584412271571"><g transform="matrix(1,0,0,1,0,0)"><svg width="213.1584412271571" viewBox="1.5 -23 40.5 23" height="121.05294193147195" data-palette-color="#ffffff"><path d="M1.5-19.05L1.5-21.55 4.45-21.55 12-23 12-19.65Q12.2-19.95 12.73-20.5 13.25-21.05 14.1-21.55 14.95-22.05 16.18-22.43 17.4-22.8 19.05-22.8L19.05-22.8Q20-22.8 21-22.65 22-22.5 22.88-22.15 23.75-21.8 24.45-21.2 25.15-20.6 25.45-19.65L25.45-19.65Q25.6-19.85 26.05-20.38 26.5-20.9 27.33-21.45 28.15-22 29.4-22.4 30.65-22.8 32.4-22.8L32.4-22.8Q33.55-22.8 34.73-22.6 35.9-22.4 36.88-21.88 37.85-21.35 38.45-20.45 39.05-19.55 39.05-18.1L39.05-18.1 39.05-2.55 42-2.55 42 0 31.15 0 31.15-19.7 31-19.75Q30.9-19.8 30.7-19.83 30.5-19.85 30.1-19.85L30.1-19.85Q29.25-19.85 28.53-19.4 27.8-18.95 27.23-18.38 26.65-17.8 26.25-17.23 25.85-16.65 25.7-16.4L25.7-16.4 25.7-2.55 28.65-2.55 28.65 0 17.8 0 17.8-19.7 17.65-19.75Q17.55-19.8 17.35-19.83 17.15-19.85 16.75-19.85L16.75-19.85Q15.9-19.85 15.18-19.4 14.45-18.95 13.88-18.38 13.3-17.8 12.9-17.23 12.5-16.65 12.35-16.4L12.35-16.4 12.35-2.55 15.3-2.55 15.3 0 1.5 0 1.5-2.55 4.45-2.55 4.45-19.05 1.5-19.05Z" opacity="1" transform="matrix(1,0,0,1,0,0)" fill="#ffffff" class="wordmark-text-0" data-fill-palette-color="quaternary" id="text-0"></path></svg></g></svg></g></svg></g></svg></g><g></g></svg></g></svg></g></svg></g></svg></g><defs></defs></svg><rect width="342.85155851775386" height="342.85155851775386" fill="none" stroke="none" visibility="hidden"></rect></g></svg></g></svg>